Coordinates
version=1
nRows=27
nColumns=38
inDegrees=no

Units are S.I. units (second, meters, Newtons, ...)
If the header above contains a line with 'inDegrees', this indicates whether rotational values are in degrees (yes) or radians (no).

endheader
time	pelvis_tilt	pelvis_list	pelvis_rotation	pelvis_tx	pelvis_ty	pelvis_tz	hip_flexion_r	hip_adduction_r	hip_rotation_r	knee_angle_r	ankle_angle_r	subtalar_angle_r	mtp_angle_r	hip_flexion_l	hip_adduction_l	hip_rotation_l	knee_angle_l	ankle_angle_l	subtalar_angle_l	mtp_angle_l	lumbar_extension	lumbar_bending	lumbar_rotation	arm_flex_r	arm_add_r	arm_rot_r	elbow_flex_r	pro_sup_r	wrist_flex_r	wrist_dev_r	arm_flex_l	arm_add_l	arm_rot_l	elbow_flex_l	pro_sup_l	wrist_flex_l	wrist_dev_l
2.09	-0.120051	1.47945	-1.36673	0.577231	-0.461353	1.03235	-0.408871	0.0324044	-0.323936	0.167608	-0.0549961	0	0	0.172346	0.0312851	-0.240264	0	-0.117781	0	0	-0.612329	0.0683634	-0.050897	-0.160291	-0.416609	0.191978	0.949572	0.747683	0	0	-0.13026	-0.430226	0.140489	0.763142	1.30133	0	0
2.1	-0.107619	1.47953	-1.37715	0.578254	-0.47569	1.03059	-0.415316	0.0278372	-0.324412	0.186585	-0.0579696	0	0	0.173956	0.0371919	-0.237183	0	-0.114311	0	0	-0.611898	0.0642897	-0.0562357	-0.158971	-0.413065	0.195606	0.944344	0.743243	0	0	-0.134056	-0.431715	0.133874	0.757177	1.29955	0	0
2.11	-0.0769298	1.48018	-1.40701	0.57912	-0.490323	1.02889	-0.423713	0.0220317	-0.319399	0.198806	-0.0631118	0	0	0.17601	0.0439351	-0.234139	0	-0.116141	0	0	-0.610623	0.0577391	-0.0606096	-0.158652	-0.408135	0.198181	0.938142	0.738974	0	0	-0.137206	-0.434017	0.129179	0.750482	1.2977	0	0
2.12	-0.0401489	1.47936	-1.44298	0.579939	-0.505498	1.02767	-0.429102	0.0138351	-0.317406	0.222874	-0.0928289	0	0	0.175127	0.0501083	-0.230147	0	-0.146738	0	0	-0.607513	0.0497876	-0.0679011	-0.153978	-0.400336	0.205282	0.922751	0.738043	0	0	-0.142947	-0.438031	0.127308	0.74252	1.28777	0	0
2.13	-0.0114557	1.47593	-1.47171	0.580724	-0.521034	1.02674	-0.436099	0.0061002	-0.307868	0.24848	-0.100481	0	0	0.17285	0.0538467	-0.230256	0.011722	-0.157843	0	0	-0.608857	0.0433597	-0.0683388	-0.156925	-0.392844	0.200859	0.914774	0.743795	0	0	-0.143197	-0.441437	0.12958	0.733827	1.2837	0	0
2.14	0.019713	1.47394	-1.50495	0.581476	-0.53689	1.02593	-0.438609	-0.00441465	-0.290872	0.279809	-0.128543	0	0	0.176624	0.0561547	-0.247338	0.0510634	-0.187517	0	0	-0.607549	0.0325434	-0.0773357	-0.14245	-0.39563	0.241061	0.895369	0.703734	0	0	-0.157917	-0.441398	0.104	0.733804	1.29395	0	0
2.15	0.055183	1.47264	-1.54309	0.582247	-0.552515	1.02537	-0.437059	-0.0170733	-0.26199	0.316137	-0.139645	0	0	0.183889	0.0572248	-0.265816	0.0937452	-0.20207	0	0	-0.606178	0.0241597	-0.074761	-0.148976	-0.383146	0.223719	0.886913	0.718191	0	0	-0.154863	-0.445017	0.112265	0.722277	1.28572	0	0
2.16	0.0863827	1.47323	-1.5775	0.583012	-0.567957	1.02516	-0.429165	-0.029879	-0.227292	0.356246	-0.16849	0	0	0.196097	0.0534609	-0.29039	0.145789	-0.212105	0	0	-0.601935	0.0140653	-0.0770451	-0.145037	-0.376548	0.231491	0.872321	0.707414	0	0	-0.158719	-0.44639	0.105331	0.714705	1.28465	0	0
2.17	0.121399	1.47563	-1.61557	0.583781	-0.583102	1.02505	-0.413896	-0.0427047	-0.200169	0.403501	-0.203892	0	0	0.209574	0.0468361	-0.314099	0.201966	-0.206552	0	0	-0.595594	0.00425083	-0.0795923	-0.141602	-0.370111	0.238185	0.859366	0.699395	0	0	-0.162286	-0.447994	0.0996116	0.707751	1.28183	0	0
2.18	0.145336	1.47669	-1.64201	0.584747	-0.597975	1.02545	-0.394404	-0.0542151	-0.175865	0.458979	-0.265319	0	0	0.220194	0.0370514	-0.340374	0.261486	-0.180425	0	0	-0.590794	-0.00241416	-0.0803525	-0.140546	-0.36549	0.241561	0.850676	0.692261	0	0	-0.161878	-0.449934	0.102548	0.698999	1.27239	0	0
2.19	0.151079	1.47328	-1.64801	0.585929	-0.61256	1.02669	-0.380018	-0.0619004	-0.153642	0.508894	-0.316317	0	0	0.220459	0.028292	-0.357233	0.309508	-0.163507	0	0	-0.59251	-0.00467064	-0.0809149	-0.14244	-0.359275	0.233254	0.847084	0.693866	0	0	-0.158082	-0.45123	0.107335	0.690608	1.2639	0	0
2.2	0.226789	1.47929	-1.72961	0.586612	-0.626507	1.02663	-0.344171	-0.0782967	-0.128543	0.576388	-0.36026	0	0	0.229198	0.0280384	-0.369429	0.348234	-0.148902	0	0	-0.583231	-0.0145966	-0.0791867	-0.14543	-0.351861	0.222512	0.842848	0.702817	0	0	-0.155068	-0.453551	0.113363	0.684025	1.25364	0	0
2.21	0.46621	1.48983	-1.97901	0.586364	-0.640559	1.02407	-0.315704	-0.116914	-0.104707	0.616887	-0.386765	0	0	0.24667	0.0392726	-0.38493	0.382971	-0.132701	0	0	-0.560641	-0.0370161	-0.0781622	-0.157021	-0.341614	0.20519	0.844734	0.721396	0	0	-0.160124	-0.461209	0.118697	0.686375	1.24347	0	0
2.22	0.473342	1.48728	-1.99199	0.587239	-0.654252	1.02488	-0.292698	-0.126406	-0.0800623	0.662636	-0.465287	0	0	0.240514	0.0368309	-0.397497	0.4076	-0.118194	0	0	-0.563296	-0.0405231	-0.0745721	-0.155775	-0.350014	0.221704	0.848873	0.690983	0	0	-0.158832	-0.464418	0.123246	0.690405	1.23539	0	0
2.23	0.459601	1.48458	-1.98406	0.588073	-0.667667	1.0258	-0.268764	-0.133556	-0.0574396	0.707299	-0.530035	0	0	0.229527	0.0361821	-0.401165	0.420982	-0.104387	0	0	-0.567216	-0.0406554	-0.0685409	-0.161561	-0.352039	0.212522	0.858407	0.691222	0	0	-0.154333	-0.466875	0.13022	0.693899	1.22914	0	0
2.24	0.428622	1.48144	-1.96045	0.588706	-0.680889	1.02696	-0.24368	-0.139192	-0.0362632	0.751509	-0.583317	0	0	0.214672	0.0340949	-0.406723	0.429269	-0.0893242	0	0	-0.572407	-0.0399287	-0.0608485	-0.168052	-0.355088	0.202005	0.87057	0.689485	0	0	-0.149725	-0.468551	0.13489	0.699221	1.22543	0	0
2.25	0.403608	1.47962	-1.94379	0.589139	-0.694052	1.02814	-0.217143	-0.144169	-0.0194632	0.795053	-0.595389	0	0	0.198439	0.0327814	-0.410526	0.431221	-0.0847393	0	0	-0.574802	-0.0409171	-0.0583612	-0.166566	-0.360359	0.2069	0.875857	0.685812	0	0	-0.15337	-0.468803	0.124859	0.709244	1.23066	0	0
2.26	0.364939	1.47696	-1.91369	0.589487	-0.707065	1.02952	-0.192934	-0.147349	-0.00877431	0.835835	-0.593967	0	0	0.179168	0.0307206	-0.415262	0.429625	-0.0743919	0	0	-0.578026	-0.0400798	-0.051844	-0.170508	-0.365949	0.203095	0.886347	0.684858	0	0	-0.151469	-0.470847	0.127332	0.716911	1.23054	0	0
2.27	0.322259	1.47387	-1.87907	0.58981	-0.719947	1.03113	-0.171554	-0.149189	-0.00464632	0.871871	-0.562924	0	0	0.157733	0.0286258	-0.42071	0.424063	-0.064168	0	0	-0.581148	-0.0385121	-0.0463905	-0.174939	-0.371575	0.198348	0.897665	0.684999	0	0	-0.14999	-0.472873	0.12888	0.72507	1.23179	0	0
2.28	0.279715	1.47049	-1.84292	0.590222	-0.732721	1.03309	-0.150526	-0.150174	-0.00450107	0.906413	-0.51098	0	0	0.13456	0.0267328	-0.426626	0.414708	-0.0572218	0	0	-0.5839	-0.0360098	-0.0438938	-0.177752	-0.376158	0.193098	0.907004	0.686924	0	0	-0.149167	-0.474324	0.128045	0.732474	1.23439	0	0
2.29	0.24733	1.46808	-1.81422	0.590819	-0.745358	1.03519	-0.128881	-0.150948	-0.00839151	0.936698	-0.455853	0	0	0.112272	0.0255246	-0.431728	0.403752	-0.0539374	0	0	-0.584846	-0.0328983	-0.0448529	-0.178912	-0.379494	0.18854	0.91314	0.689538	0	0	-0.148611	-0.475764	0.125665	0.739096	1.23923	0	0
2.3	0.236013	1.46758	-1.80351	0.591607	-0.757806	1.03714	-0.0995697	-0.154489	-0.0167354	0.974864	-0.39433	0	0	0.0929226	0.0267662	-0.433021	0.391947	-0.0499516	0	0	-0.582534	-0.0286676	-0.0450547	-0.187937	-0.371933	0.156389	0.919502	0.730656	0	0	-0.141364	-0.478786	0.135601	0.740455	1.23795	0	0
2.31	0.215628	1.46749	-1.77961	0.592784	-0.770128	1.03952	-0.0814168	-0.154563	-0.0285722	0.986252	-0.340655	0	0	0.0732096	0.0292754	-0.42401	0.375885	-0.0553866	0	0	-0.58071	-0.0240645	-0.0552832	-0.179669	-0.380369	0.174184	0.916577	0.714951	0	0	-0.144939	-0.479411	0.121174	0.750435	1.24991	0	0
2.32	0.189254	1.46738	-1.748	0.594101	-0.78224	1.04209	-0.0590018	-0.154098	-0.0407335	0.999799	-0.329389	0	0	0.0534574	0.0313938	-0.412453	0.35935	-0.0564804	0	0	-0.579287	-0.0162959	-0.0598568	-0.18039	-0.383718	0.170877	0.917904	0.717496	0	0	-0.137388	-0.482994	0.128696	0.754343	1.24855	0	0
2.33	0.155774	1.46795	-1.70893	0.595476	-0.794313	1.04464	-0.0367184	-0.15212	-0.0521712	1.00861	-0.303648	0	0	0.0357732	0.0300432	-0.407769	0.347996	-0.0594769	0	0	-0.57721	-0.00796829	-0.066055	-0.178335	-0.388627	0.17331	0.916991	0.71821	0	0	-0.132898	-0.484982	0.127941	0.760669	1.25227	0	0
2.34	0.116141	1.46789	-1.66372	0.596796	-0.806319	1.04725	-0.0160129	-0.148877	-0.0628933	1.01189	-0.279289	0	0	0.0182621	0.0269131	-0.405413	0.338897	-0.0632796	0	0	-0.57572	0.00133386	-0.0714707	-0.177746	-0.392786	0.173103	0.916829	0.719647	0	0	-0.127822	-0.487379	0.128479	0.767874	1.25586	0	0
2.35	0.072836	1.46667	-1.61511	0.598027	-0.818256	1.04993	0.00264113	-0.144446	-0.0728119	1.00945	-0.256352	0	0	0.000161728	0.0226133	-0.40445	0.331052	-0.067841	0	0	-0.575754	0.0111204	-0.0753367	-0.1784	-0.397545	0.172019	0.918137	0.723013	0	0	-0.12145	-0.490252	0.130579	0.776168	1.25973	0	0
